<svg xmlns="http://www.w3.org/2000/svg" xmlns:xlink="http://www.w3.org/1999/xlink" width="500" zoomAndPan="magnify" viewBox="0 0 375 374.999991" height="500" preserveAspectRatio="xMidYMid meet" version="1.0"><defs><g/><clipPath id="40043dd479"><path d="M 80.285156 136.914062 L 129.785156 136.914062 L 129.785156 180.414062 L 80.285156 180.414062 Z M 80.285156 136.914062 " clip-rule="nonzero"/></clipPath><clipPath id="e2abc53d15"><path d="M 113.332031 135.230469 L 153.832031 135.230469 L 153.832031 181.730469 L 113.332031 181.730469 Z M 113.332031 135.230469 " clip-rule="nonzero"/></clipPath></defs><g fill="#ff5757" fill-opacity="1"><g transform="translate(61.994165, 244.377928)"><g><path d="M 98.617188 2.929688 C 147.925781 2.929688 184.054688 -33.6875 184.054688 -85.191406 C 184.054688 -136.699219 147.925781 -173.558594 98.617188 -173.558594 C 49.554688 -173.558594 13.425781 -136.699219 13.425781 -85.191406 C 13.425781 -33.6875 49.554688 2.929688 98.617188 2.929688 Z M 98.617188 -7.8125 C 55.898438 -7.8125 24.65625 -40.03125 24.65625 -85.191406 C 24.65625 -130.351562 55.898438 -162.816406 98.617188 -162.816406 C 141.582031 -162.816406 172.824219 -130.351562 172.824219 -85.191406 C 172.824219 -40.03125 141.582031 -7.8125 98.617188 -7.8125 Z M 98.617188 -7.8125 "/></g></g></g><g fill="#ff5757" fill-opacity="1"><g transform="translate(181.418913, 240.584383)"><g><path d="M 106.230469 2.921875 C 128.886719 2.921875 148.625 -3.65625 164.214844 -15.105469 L 164.214844 -27.53125 C 149.839844 -15.351562 128.886719 -7.796875 106.230469 -7.796875 C 58.71875 -7.796875 24.609375 -38.007812 24.609375 -83.8125 C 24.609375 -128.644531 58.476562 -162.511719 105.984375 -162.511719 C 124.503906 -162.511719 140.339844 -157.636719 153.738281 -149.109375 L 155.203125 -161.78125 C 141.3125 -169.089844 124.015625 -173.230469 106.230469 -173.230469 C 52.140625 -173.230469 13.402344 -135.222656 13.402344 -83.8125 C 13.402344 -31.917969 51.894531 2.921875 106.230469 2.921875 Z M 106.230469 2.921875 "/></g></g></g><g clip-path="url(#40043dd479)"><path fill="#ff5757" d="M 105.035156 136.917969 C 91.367188 136.917969 80.285156 146.65625 80.285156 158.664062 C 80.285156 170.675781 91.367188 180.410156 105.035156 180.410156 C 118.703125 180.410156 129.785156 170.675781 129.785156 158.664062 C 129.785156 146.65625 118.703125 136.917969 105.035156 136.917969 " fill-opacity="1" fill-rule="nonzero"/></g><g clip-path="url(#e2abc53d15)"><path fill="#ff5757" d="M 113.332031 158.480469 L 153.832031 135.234375 L 153.832031 181.726562 L 113.332031 158.480469 " fill-opacity="1" fill-rule="nonzero"/></g><g fill="#ff5757" fill-opacity="1"><g transform="translate(118.727574, 121.502123)"><g><path d="M 9.835938 -10.09375 L 10.148438 -12.792969 C 9.355469 -13.144531 8.472656 -13.308594 7.554688 -13.308594 C -1.34375 -13.308594 -1.359375 0.0351562 7.554688 0.0351562 C 8.472656 0.0351562 9.632812 -0.183594 10.441406 -0.515625 L 10.09375 -3.234375 C 9.59375 -2.976562 8.695312 -2.648438 7.554688 -2.648438 C 2.351562 -2.648438 2.351562 -10.660156 7.554688 -10.660156 C 8.695312 -10.660156 9.339844 -10.347656 9.835938 -10.09375 Z M 9.835938 -10.09375 "/></g></g></g><g fill="#ff5757" fill-opacity="1"><g transform="translate(129.789272, 121.502123)"><g><path d="M 7.792969 0.183594 C 16.839844 0.183594 16.839844 -13.363281 7.792969 -13.363281 C -1.25 -13.363281 -1.25 0.183594 7.792969 0.183594 Z M 7.792969 -2.535156 C 2.535156 -2.535156 2.535156 -10.660156 7.792969 -10.660156 C 13.050781 -10.660156 13.050781 -2.535156 7.792969 -2.535156 Z M 7.792969 -2.535156 "/></g></g></g><g fill="#ff5757" fill-opacity="1"><g transform="translate(145.352824, 121.502123)"><g><path d="M 4.097656 -7.152344 L 10.753906 0.277344 L 11.453125 0.277344 L 11.453125 -13.125 L 8.804688 -13.125 L 8.804688 -5.699219 L 2.167969 -13.417969 L 1.46875 -13.417969 L 1.46875 0 L 4.097656 0 Z M 4.097656 -7.152344 "/></g></g></g><g fill="#ff5757" fill-opacity="1"><g transform="translate(158.288767, 121.502123)"><g><path d="M 4.097656 -7.152344 L 10.753906 0.277344 L 11.453125 0.277344 L 11.453125 -13.125 L 8.804688 -13.125 L 8.804688 -5.699219 L 2.167969 -13.417969 L 1.46875 -13.417969 L 1.46875 0 L 4.097656 0 Z M 4.097656 -7.152344 "/></g></g></g><g fill="#ff5757" fill-opacity="1"><g transform="translate(171.22471, 121.502123)"><g><path d="M 8.273438 0 L 8.273438 -2.628906 L 4.097656 -2.628906 L 4.097656 -5.257812 L 7.554688 -5.257812 L 7.554688 -7.886719 L 4.097656 -7.886719 L 4.097656 -10.515625 L 8.050781 -10.515625 L 8.050781 -13.144531 L 1.46875 -13.144531 L 1.46875 0 Z M 8.273438 0 "/></g></g></g><g fill="#ff5757" fill-opacity="1"><g transform="translate(180.485669, 121.502123)"><g><path d="M 9.835938 -10.09375 L 10.148438 -12.792969 C 9.355469 -13.144531 8.472656 -13.308594 7.554688 -13.308594 C -1.34375 -13.308594 -1.359375 0.0351562 7.554688 0.0351562 C 8.472656 0.0351562 9.632812 -0.183594 10.441406 -0.515625 L 10.09375 -3.234375 C 9.59375 -2.976562 8.695312 -2.648438 7.554688 -2.648438 C 2.351562 -2.648438 2.351562 -10.660156 7.554688 -10.660156 C 8.695312 -10.660156 9.339844 -10.347656 9.835938 -10.09375 Z M 9.835938 -10.09375 "/></g></g></g><g fill="#ff5757" fill-opacity="1"><g transform="translate(191.547367, 121.502123)"><g><path d="M 6.269531 0 L 6.269531 -10.515625 L 9.539062 -10.515625 L 9.539062 -13.125 L 0.367188 -13.125 L 0.367188 -10.515625 L 3.640625 -10.515625 L 3.640625 0 Z M 6.269531 0 "/></g></g></g><g fill="#ff5757" fill-opacity="1"><g transform="translate(121.794591, 206.361666)"><g><path d="M 9.835938 -10.09375 L 10.148438 -12.792969 C 9.355469 -13.144531 8.472656 -13.308594 7.554688 -13.308594 C -1.34375 -13.308594 -1.359375 0.0351562 7.554688 0.0351562 C 8.472656 0.0351562 9.632812 -0.183594 10.441406 -0.515625 L 10.09375 -3.234375 C 9.59375 -2.976562 8.695312 -2.648438 7.554688 -2.648438 C 2.351562 -2.648438 2.351562 -10.660156 7.554688 -10.660156 C 8.695312 -10.660156 9.339844 -10.347656 9.835938 -10.09375 Z M 9.835938 -10.09375 "/></g></g></g><g fill="#ff5757" fill-opacity="1"><g transform="translate(132.856289, 206.361666)"><g><path d="M 7.792969 0.183594 C 16.839844 0.183594 16.839844 -13.363281 7.792969 -13.363281 C -1.25 -13.363281 -1.25 0.183594 7.792969 0.183594 Z M 7.792969 -2.535156 C 2.535156 -2.535156 2.535156 -10.660156 7.792969 -10.660156 C 13.050781 -10.660156 13.050781 -2.535156 7.792969 -2.535156 Z M 7.792969 -2.535156 "/></g></g></g><g fill="#ff5757" fill-opacity="1"><g transform="translate(148.419841, 206.361666)"><g><path d="M 1.46875 -13.144531 L 1.46875 0 L 8.273438 0 L 8.273438 -2.628906 L 4.097656 -2.628906 L 4.097656 -13.144531 Z M 1.46875 -13.144531 "/></g></g></g><g fill="#ff5757" fill-opacity="1"><g transform="translate(157.478675, 206.361666)"><g><path d="M 1.46875 -13.144531 L 1.46875 0 L 8.273438 0 L 8.273438 -2.628906 L 4.097656 -2.628906 L 4.097656 -13.144531 Z M 1.46875 -13.144531 "/></g></g></g><g fill="#ff5757" fill-opacity="1"><g transform="translate(166.537508, 206.361666)"><g><path d="M 0.292969 0 L 3.273438 0 L 3.785156 -1.414062 L 8.144531 -1.414062 L 8.675781 0 L 11.636719 0 L 6.101562 -13.621094 L 5.828125 -13.621094 Z M 4.742188 -3.878906 L 5.972656 -7.296875 L 7.167969 -3.878906 Z M 4.742188 -3.878906 "/></g></g></g><g fill="#ff5757" fill-opacity="1"><g transform="translate(178.536329, 206.361666)"><g><path d="M 1.46875 0 L 6.671875 0 C 8.804688 0 10.550781 -1.746094 10.550781 -3.953125 C 10.550781 -4.980469 10.054688 -5.992188 9.191406 -6.582031 C 10.019531 -7.152344 10.367188 -8.179688 10.40625 -9.171875 C 10.460938 -11.488281 9.007812 -13.160156 6.671875 -13.160156 L 1.46875 -13.160156 Z M 4.117188 -10.53125 L 6.453125 -10.53125 C 7.207031 -10.53125 7.664062 -9.945312 7.664062 -9.210938 C 7.664062 -8.492188 7.207031 -7.886719 6.453125 -7.886719 L 4.117188 -7.886719 Z M 4.117188 -5.257812 L 6.453125 -5.257812 C 7.207031 -5.257812 7.777344 -4.6875 7.777344 -3.953125 C 7.777344 -3.21875 7.207031 -2.628906 6.453125 -2.628906 L 4.117188 -2.628906 Z M 4.117188 -5.257812 "/></g></g></g><g fill="#ff5757" fill-opacity="1"><g transform="translate(189.947152, 206.361666)"><g><path d="M 0.863281 -0.84375 C 2.648438 0.0742188 4.28125 0.164062 5.019531 0.109375 C 7.480469 -0.0195312 8.988281 -1.691406 8.988281 -3.878906 C 8.988281 -5.972656 7.222656 -7.152344 5.183594 -7.90625 C 4.429688 -8.160156 3.785156 -8.492188 3.714844 -9.226562 C 3.65625 -9.964844 4.082031 -10.644531 5.019531 -10.699219 C 5.421875 -10.71875 6.25 -10.734375 7.703125 -10.148438 L 8.03125 -12.683594 C 6.34375 -13.273438 5.441406 -13.273438 4.761719 -13.234375 C 2.574219 -13.125 1.046875 -11.433594 1.046875 -9.226562 C 1.046875 -7.023438 2.886719 -5.972656 4.945312 -5.21875 C 5.679688 -4.964844 6.25 -4.632812 6.304688 -3.878906 C 6.378906 -3.160156 5.71875 -2.609375 4.945312 -2.554688 C 4.339844 -2.5 2.703125 -2.535156 1.195312 -3.601562 Z M 0.863281 -0.84375 "/></g></g></g><g fill="#ff5757" fill-opacity="1"><g transform="translate(159.345901, 172.189589)"><g><path d="M 6.804688 -0.746094 C 9.832031 0.5625 13.160156 -0.261719 18.28125 -4.933594 C 22.84375 2.054688 26.171875 1.382812 28.789062 -6.355469 L 28.488281 -6.355469 C 27.480469 -3.925781 26.394531 -3.214844 25.5 -3.214844 C 24.191406 -3.214844 22.097656 -7.066406 21.421875 -8.335938 C 21.648438 -8.675781 21.945312 -9.121094 22.207031 -9.722656 C 22.582031 -10.46875 22.957031 -11.476562 23.21875 -12.859375 C 23.628906 -14.804688 26.097656 -15.105469 27.179688 -15.140625 L 27.667969 -15.140625 L 27.667969 -15.476562 L 18.84375 -15.476562 L 18.84375 -15.140625 L 19.402344 -15.140625 C 20.5625 -15.105469 23.105469 -14.804688 22.882812 -13.046875 C 22.65625 -11.664062 22.28125 -10.617188 21.910156 -9.871094 C 21.683594 -9.382812 21.421875 -8.972656 21.234375 -8.675781 L 14.582031 -20.601562 C 18.207031 -23.144531 20.75 -24.339844 20.75 -27.253906 C 20.75 -28.226562 20.1875 -29.761719 18.917969 -30.917969 C 17.683594 -32.042969 16.113281 -32.675781 14.582031 -32.675781 C 10.953125 -32.675781 7.777344 -30.132812 7.777344 -26.246094 C 7.777344 -25.050781 8.039062 -23.777344 8.597656 -22.433594 C 8.898438 -21.683594 10.09375 -19.664062 10.617188 -18.769531 C 4.449219 -14.730469 1.871094 -12.5625 1.871094 -8.898438 C 1.832031 -7.027344 2.316406 -5.308594 3.253906 -3.851562 C 4.113281 -2.46875 5.308594 -1.421875 6.804688 -0.746094 Z M 14.429688 -20.9375 C 13.722656 -22.246094 12.261719 -25.871094 12.261719 -27.59375 C 12.261719 -30.917969 14.058594 -32.378906 14.953125 -32.378906 C 16.375 -32.378906 17.308594 -29.5 17.085938 -27.253906 C 16.75 -23.964844 14.953125 -21.273438 14.429688 -20.9375 Z M 18.09375 -5.234375 C 13.984375 -1.421875 8 -2.132812 6.730469 -7.777344 C 6.65625 -8.300781 6.542969 -8.859375 6.542969 -9.273438 C 6.542969 -11.964844 7.367188 -16.078125 10.769531 -18.507812 L 14.917969 -11.03125 C 16 -9.121094 17.570312 -6.132812 18.09375 -5.234375 Z M 18.09375 -5.234375 "/></g></g></g></svg>